# xmcd
#
# Track frame offsets:
# 150
# 14045
# 28885
# 41010
# 55002
# 82681
# 97514
# 108877
# 122039
# 135680
# 146493
# 160324
# 169663
# 186814
# 198859
# 215895
#
# Disc length: 3051 seconds
#
# Revision: 0
# Processed by: cddbd v1.5.1PL2 Copyright (c) Steve Scherf et al.
# Submitted via: Audion 3.0.2 (http://www.panic.com/audion/)
#
DISCID=d40be910
DTITLE=Various Artist - Women's Fancy Dance Songs
DYEAR=1900
DGENRE=
TTITLE0=Forgotten One
TTITLE1=Rowdy-Rowdy
TTITLE2=The Sweaty One
TTITLE3=Straight
TTITLE4=Buckleberry Shawl
TTITLE5=Native Princesses
TTITLE6=Down at 151
TTITLE7=Beautiful Way
TTITLE8=Wolf Pack
TTITLE9=Fancy
TTITLE10=Elmer's Reincarnation
TTITLE11=Rock City
TTITLE12=Fancy Shawl
TTITLE13=Twinz
TTITLE14=Walkin Bull
TTITLE15=Ninjaboot
EXTD=
EXTT0=
EXTT1=
EXTT2=
EXTT3=
EXTT4=
EXTT5=
EXTT6=
EXTT7=
EXTT8=
EXTT9=
EXTT10=
EXTT11=
EXTT12=
EXTT13=
EXTT14=
EXTT15=
PLAYORDER=
